<svg width="245" height="264" viewBox="0 0 245 264" fill="none" xmlns="http://www.w3.org/2000/svg">
<circle cx="220.07" cy="239.198" r="23.0351" transform="rotate(-90 220.07 239.198)" fill="#8C82C8"/>
<circle cx="220.07" cy="24.2037" r="23.0351" transform="rotate(-90 220.07 24.2037)" stroke="#8C82C8" stroke-width="2" stroke-miterlimit="0" stroke-linecap="round"/>
<path d="M221.07 51.2388C221.07 50.6865 220.623 50.2388 220.07 50.2388C219.518 50.2388 219.07 50.6865 219.07 51.2388L221.07 51.2388ZM219.363 212.87C219.754 213.26 220.387 213.26 220.777 212.87L227.141 206.506C227.532 206.115 227.532 205.482 227.141 205.092C226.751 204.701 226.118 204.701 225.727 205.092L220.07 210.748L214.413 205.092C214.023 204.701 213.39 204.701 212.999 205.092C212.609 205.482 212.609 206.115 212.999 206.506L219.363 212.87ZM219.07 51.2388L219.07 212.163L221.07 212.163L221.07 51.2388L219.07 51.2388Z" fill="#8C82C8"/>
<circle cx="155" cy="24.2037" r="23.0351" transform="rotate(-90 155 24.2037)" stroke="#8C82C8" stroke-width="2" stroke-miterlimit="0" stroke-linecap="round"/>
<circle cx="155" cy="239.198" r="23.0351" transform="rotate(-90 155 239.198)" stroke="#8C82C8" stroke-width="2" stroke-miterlimit="0" stroke-linecap="round"/>
<path d="M154 212.163C154 212.715 154.448 213.163 155 213.163C155.553 213.163 156 212.715 156 212.163L154 212.163ZM155.708 50.5317C155.317 50.1412 154.684 50.1412 154.293 50.5317L147.929 56.8957C147.539 57.2862 147.539 57.9194 147.929 58.3099C148.32 58.7004 148.953 58.7004 149.344 58.3099L155 52.653L160.657 58.3099C161.048 58.7004 161.681 58.7004 162.072 58.3099C162.462 57.9194 162.462 57.2862 162.072 56.8957L155.708 50.5317ZM156 212.163L156 51.2388L154 51.2388L154 212.163L156 212.163Z" fill="#8C82C8"/>
<circle cx="89.9301" cy="24.2037" r="23.0351" transform="rotate(-90 89.9301 24.2037)" stroke="#8C82C8" stroke-width="2" stroke-miterlimit="0" stroke-linecap="round"/>
<circle cx="89.9301" cy="239.198" r="23.0351" transform="rotate(-90 89.9301 239.198)" stroke="#8C82C8" stroke-width="2" stroke-miterlimit="0" stroke-linecap="round"/>
<path d="M90.9302 51.2388C90.9302 50.6865 90.4825 50.2388 89.9302 50.2388C89.3779 50.2388 88.9302 50.6865 88.9302 51.2388L90.9302 51.2388ZM89.2231 212.87C89.6136 213.26 90.2468 213.26 90.6373 212.87L97.0013 206.506C97.3918 206.115 97.3918 205.482 97.0013 205.092C96.6108 204.701 95.9776 204.701 95.5871 205.092L89.9302 210.748L84.2734 205.092C83.8828 204.701 83.2497 204.701 82.8591 205.092C82.4686 205.482 82.4686 206.115 82.8591 206.506L89.2231 212.87ZM88.9302 51.2388L88.9302 212.163L90.9302 212.163L90.9302 51.2388L88.9302 51.2388Z" fill="#8C82C8"/>
<circle cx="24.8599" cy="239.198" r="23.0351" transform="rotate(-90 24.8599 239.198)" fill="#D74C2D"/>
<circle cx="24.8599" cy="24.2037" r="23.0351" transform="rotate(-90 24.8599 24.2037)" stroke="#8C82C8" stroke-width="2" stroke-miterlimit="0" stroke-linecap="round"/>
<path d="M23.8601 212.163C23.8601 212.715 24.3078 213.163 24.8601 213.163C25.4124 213.163 25.8601 212.715 25.8601 212.163L23.8601 212.163ZM25.5672 50.5317C25.1767 50.1412 24.5435 50.1412 24.153 50.5317L17.789 56.8957C17.3985 57.2862 17.3985 57.9194 17.789 58.3099C18.1795 58.7004 18.8127 58.7004 19.2032 58.3099L24.8601 52.653L30.5169 58.3099C30.9075 58.7004 31.5406 58.7004 31.9312 58.3099C32.3217 57.9194 32.3217 57.2862 31.9312 56.8957L25.5672 50.5317ZM25.8601 212.163L25.8601 51.2388L23.8601 51.2388L23.8601 212.163L25.8601 212.163Z" fill="#8C82C8"/>
</svg>
