<svg width="264" height="245" viewBox="0 0 264 245" fill="none" xmlns="http://www.w3.org/2000/svg">
<circle cx="239.803" cy="24.9872" r="23.0351" transform="rotate(-180 239.803 24.9872)" fill="#8C82C8"/>
<circle cx="24.8095" cy="24.9872" r="23.0351" transform="rotate(-180 24.8095 24.9872)" stroke="#8C82C8" stroke-width="2" stroke-miterlimit="0" stroke-linecap="round"/>
<path d="M51.8446 23.9873C51.2923 23.9873 50.8446 24.435 50.8446 24.9873C50.8446 25.5396 51.2923 25.9873 51.8446 25.9873L51.8446 23.9873ZM213.475 25.6944C213.866 25.3039 213.866 24.6707 213.475 24.2802L207.112 17.9162C206.721 17.5257 206.088 17.5257 205.697 17.9162C205.307 18.3068 205.307 18.9399 205.697 19.3305L211.354 24.9873L205.697 30.6442C205.307 31.0347 205.307 31.6678 205.697 32.0584C206.088 32.4489 206.721 32.4489 207.112 32.0584L213.475 25.6944ZM51.8446 25.9873L212.768 25.9873L212.768 23.9873L51.8446 23.9873L51.8446 25.9873Z" fill="#8C82C8"/>
<circle cx="24.8095" cy="90.057" r="23.0351" transform="rotate(-180 24.8095 90.057)" stroke="#8C82C8" stroke-width="2" stroke-miterlimit="0" stroke-linecap="round"/>
<circle cx="239.803" cy="90.057" r="23.0351" transform="rotate(-180 239.803 90.057)" stroke="#8C82C8" stroke-width="2" stroke-miterlimit="0" stroke-linecap="round"/>
<path d="M212.768 91.0569C213.321 91.0569 213.768 90.6092 213.768 90.0569C213.768 89.5046 213.321 89.0569 212.768 89.0569L212.768 91.0569ZM51.1375 89.3498C50.747 89.7403 50.747 90.3735 51.1375 90.764L57.5014 97.1279C57.892 97.5185 58.5251 97.5185 58.9157 97.1279C59.3062 96.7374 59.3062 96.1043 58.9157 95.7137L53.2588 90.0569L58.9157 84.4C59.3062 84.0095 59.3062 83.3763 58.9157 82.9858C58.5251 82.5953 57.892 82.5953 57.5014 82.9858L51.1375 89.3498ZM212.768 89.0569L51.8446 89.0569L51.8446 91.0569L212.768 91.0569L212.768 89.0569Z" fill="#8C82C8"/>
<circle cx="24.8095" cy="155.127" r="23.0351" transform="rotate(-180 24.8095 155.127)" stroke="#8C82C8" stroke-width="2" stroke-miterlimit="0" stroke-linecap="round"/>
<circle cx="239.803" cy="155.127" r="23.0351" transform="rotate(-180 239.803 155.127)" stroke="#8C82C8" stroke-width="2" stroke-miterlimit="0" stroke-linecap="round"/>
<path d="M51.8446 154.127C51.2923 154.127 50.8446 154.575 50.8446 155.127C50.8446 155.679 51.2923 156.127 51.8446 156.127L51.8446 154.127ZM213.475 155.834C213.866 155.444 213.866 154.811 213.475 154.42L207.112 148.056C206.721 147.666 206.088 147.666 205.697 148.056C205.307 148.447 205.307 149.08 205.697 149.47L211.354 155.127L205.697 160.784C205.307 161.175 205.307 161.808 205.697 162.198C206.088 162.589 206.721 162.589 207.112 162.198L213.475 155.834ZM51.8446 156.127L212.768 156.127L212.768 154.127L51.8446 154.127L51.8446 156.127Z" fill="#8C82C8"/>
<circle cx="239.803" cy="220.198" r="23.0351" transform="rotate(-180 239.803 220.198)" fill="#D74C2D"/>
<circle cx="24.8095" cy="220.198" r="23.0351" transform="rotate(-180 24.8095 220.198)" stroke="#8C82C8" stroke-width="2" stroke-miterlimit="0" stroke-linecap="round"/>
<path d="M212.768 221.198C213.321 221.198 213.768 220.75 213.768 220.198C213.768 219.645 213.321 219.198 212.768 219.198L212.768 221.198ZM51.1375 219.49C50.747 219.881 50.747 220.514 51.1375 220.905L57.5014 227.269C57.892 227.659 58.5251 227.659 58.9157 227.269C59.3062 226.878 59.3062 226.245 58.9157 225.854L53.2588 220.198L58.9157 214.541C59.3062 214.15 59.3062 213.517 58.9157 213.126C58.5251 212.736 57.892 212.736 57.5014 213.126L51.1375 219.49ZM212.768 219.198L51.8446 219.198L51.8446 221.198L212.768 221.198L212.768 219.198Z" fill="#8C82C8"/>
</svg>
