<svg width="264" height="244" viewBox="0 0 264 244" fill="none" xmlns="http://www.w3.org/2000/svg">
<circle cx="24.1433" cy="219.306" r="23.0351" fill="#8C82C8"/>
<circle cx="239.137" cy="219.306" r="23.0351" stroke="#8C82C8" stroke-width="2" stroke-miterlimit="0" stroke-linecap="round"/>
<path d="M212.102 220.306C212.654 220.306 213.102 219.858 213.102 219.306C213.102 218.754 212.654 218.306 212.102 218.306L212.102 220.306ZM50.4713 218.599C50.0807 218.989 50.0807 219.622 50.4713 220.013L56.8352 226.377C57.2258 226.768 57.8589 226.768 58.2494 226.377C58.64 225.986 58.64 225.353 58.2494 224.963L52.5926 219.306L58.2494 213.649C58.64 213.259 58.64 212.625 58.2494 212.235C57.8589 211.844 57.2258 211.844 56.8352 212.235L50.4713 218.599ZM212.102 218.306L51.1784 218.306L51.1784 220.306L212.102 220.306L212.102 218.306Z" fill="#8C82C8"/>
<circle cx="239.137" cy="154.236" r="23.0351" stroke="#8C82C8" stroke-width="2" stroke-miterlimit="0" stroke-linecap="round"/>
<circle cx="24.1433" cy="154.236" r="23.0351" stroke="#8C82C8" stroke-width="2" stroke-miterlimit="0" stroke-linecap="round"/>
<path d="M51.1784 153.236C50.6261 153.236 50.1784 153.684 50.1784 154.236C50.1784 154.789 50.6261 155.236 51.1784 155.236L51.1784 153.236ZM212.809 154.943C213.2 154.553 213.2 153.92 212.809 153.529L206.445 147.165C206.055 146.775 205.422 146.775 205.031 147.165C204.641 147.556 204.641 148.189 205.031 148.579L210.688 154.236L205.031 159.893C204.641 160.284 204.641 160.917 205.031 161.307C205.422 161.698 206.055 161.698 206.445 161.307L212.809 154.943ZM51.1784 155.236L212.102 155.236L212.102 153.236L51.1784 153.236L51.1784 155.236Z" fill="#8C82C8"/>
<circle cx="239.137" cy="89.1657" r="23.0351" stroke="#8C82C8" stroke-width="2" stroke-miterlimit="0" stroke-linecap="round"/>
<circle cx="24.1433" cy="89.1657" r="23.0351" stroke="#8C82C8" stroke-width="2" stroke-miterlimit="0" stroke-linecap="round"/>
<path d="M212.102 90.1658C212.654 90.1658 213.102 89.7181 213.102 89.1658C213.102 88.6135 212.654 88.1658 212.102 88.1658L212.102 90.1658ZM50.4713 88.4587C50.0807 88.8492 50.0807 89.4824 50.4713 89.8729L56.8352 96.2368C57.2258 96.6274 57.8589 96.6274 58.2494 96.2368C58.64 95.8463 58.64 95.2132 58.2494 94.8226L52.5926 89.1658L58.2494 83.5089C58.64 83.1184 58.64 82.4852 58.2494 82.0947C57.8589 81.7042 57.2258 81.7042 56.8352 82.0947L50.4713 88.4587ZM212.102 88.1658L51.1784 88.1658L51.1784 90.1658L212.102 90.1658L212.102 88.1658Z" fill="#8C82C8"/>
<circle cx="24.1433" cy="24.0956" r="23.0351" fill="#D74C2D"/>
<circle cx="239.137" cy="24.0956" r="23.0351" stroke="#8C82C8" stroke-width="2" stroke-miterlimit="0" stroke-linecap="round"/>
<path d="M51.1784 23.0957C50.6261 23.0957 50.1784 23.5434 50.1784 24.0957C50.1784 24.648 50.6261 25.0957 51.1784 25.0957L51.1784 23.0957ZM212.809 24.8028C213.2 24.4123 213.2 23.7791 212.809 23.3886L206.445 17.0246C206.055 16.6341 205.422 16.6341 205.031 17.0246C204.641 17.4152 204.641 18.0483 205.031 18.4389L210.688 24.0957L205.031 29.7526C204.641 30.1431 204.641 30.7763 205.031 31.1668C205.422 31.5573 206.055 31.5573 206.445 31.1668L212.809 24.8028ZM51.1784 25.0957L212.102 25.0957L212.102 23.0957L51.1784 23.0957L51.1784 25.0957Z" fill="#8C82C8"/>
</svg>
