<svg width="264" height="244" viewBox="0 0 264 244" fill="none" xmlns="http://www.w3.org/2000/svg">
<circle cx="239.79" cy="24.1258" r="23.0351" transform="rotate(-180 239.79 24.1258)" fill="#D74C2D"/>
<circle cx="24.7958" cy="24.1258" r="23.0351" transform="rotate(-180 24.7958 24.1258)" stroke="#8C82C8" stroke-width="2" stroke-miterlimit="0" stroke-linecap="round"/>
<path d="M212.755 25.1257C213.307 25.1257 213.755 24.678 213.755 24.1257C213.755 23.5734 213.307 23.1257 212.755 23.1257L212.755 25.1257ZM51.1238 23.4186C50.7333 23.8091 50.7333 24.4423 51.1238 24.8328L57.4878 31.1968C57.8783 31.5873 58.5115 31.5873 58.902 31.1968C59.2925 30.8063 59.2925 30.1731 58.902 29.7826L53.2451 24.1257L58.902 18.4689C59.2925 18.0783 59.2925 17.4452 58.902 17.0547C58.5115 16.6641 57.8783 16.6641 57.4878 17.0547L51.1238 23.4186ZM212.755 23.1257L51.8309 23.1257L51.8309 25.1257L212.755 25.1257L212.755 23.1257Z" fill="#8C82C8"/>
<circle cx="24.7958" cy="89.1959" r="23.0351" transform="rotate(-180 24.7958 89.1959)" stroke="#8C82C8" stroke-width="2" stroke-miterlimit="0" stroke-linecap="round"/>
<circle cx="239.79" cy="89.1959" r="23.0351" transform="rotate(-180 239.79 89.1959)" stroke="#8C82C8" stroke-width="2" stroke-miterlimit="0" stroke-linecap="round"/>
<path d="M51.8309 88.1958C51.2786 88.1958 50.8309 88.6435 50.8309 89.1958C50.8309 89.7481 51.2786 90.1958 51.8309 90.1958L51.8309 88.1958ZM213.462 89.9029C213.852 89.5124 213.852 88.8792 213.462 88.4887L207.098 82.1247C206.707 81.7342 206.074 81.7342 205.684 82.1247C205.293 82.5153 205.293 83.1484 205.684 83.5389L211.34 89.1958L205.684 94.8527C205.293 95.2432 205.293 95.8763 205.684 96.2669C206.074 96.6574 206.707 96.6574 207.098 96.2669L213.462 89.9029ZM51.8309 90.1958L212.755 90.1958L212.755 88.1958L51.8309 88.1958L51.8309 90.1958Z" fill="#8C82C8"/>
<circle cx="24.7958" cy="154.266" r="23.0351" transform="rotate(-180 24.7958 154.266)" stroke="#8C82C8" stroke-width="2" stroke-miterlimit="0" stroke-linecap="round"/>
<circle cx="239.79" cy="154.266" r="23.0351" transform="rotate(-180 239.79 154.266)" stroke="#8C82C8" stroke-width="2" stroke-miterlimit="0" stroke-linecap="round"/>
<path d="M212.755 155.266C213.307 155.266 213.755 154.818 213.755 154.266C213.755 153.713 213.307 153.266 212.755 153.266L212.755 155.266ZM51.1238 153.559C50.7333 153.949 50.7333 154.582 51.1238 154.973L57.4878 161.337C57.8783 161.727 58.5115 161.727 58.902 161.337C59.2925 160.946 59.2925 160.313 58.902 159.922L53.2451 154.266L58.902 148.609C59.2925 148.218 59.2925 147.585 58.902 147.195C58.5115 146.804 57.8783 146.804 57.4878 147.195L51.1238 153.559ZM212.755 153.266L51.8309 153.266L51.8309 155.266L212.755 155.266L212.755 153.266Z" fill="#8C82C8"/>
<circle cx="239.79" cy="219.336" r="23.0351" transform="rotate(-180 239.79 219.336)" fill="#8C82C8"/>
<circle cx="24.7958" cy="219.336" r="23.0351" transform="rotate(-180 24.7958 219.336)" stroke="#8C82C8" stroke-width="2" stroke-miterlimit="0" stroke-linecap="round"/>
<path d="M51.8309 218.336C51.2786 218.336 50.8309 218.784 50.8309 219.336C50.8309 219.888 51.2786 220.336 51.8309 220.336L51.8309 218.336ZM213.462 220.043C213.852 219.653 213.852 219.02 213.462 218.629L207.098 212.265C206.707 211.875 206.074 211.875 205.684 212.265C205.293 212.656 205.293 213.289 205.684 213.679L211.34 219.336L205.684 224.993C205.293 225.384 205.293 226.017 205.684 226.407C206.074 226.798 206.707 226.798 207.098 226.407L213.462 220.043ZM51.8309 220.336L212.755 220.336L212.755 218.336L51.8309 218.336L51.8309 220.336Z" fill="#8C82C8"/>
</svg>
