<svg width="244" height="264" viewBox="0 0 244 264" fill="none" xmlns="http://www.w3.org/2000/svg">
<circle cx="219.79" cy="239.056" r="23.0351" transform="rotate(-90 219.79 239.056)" fill="#D74C2D"/>
<circle cx="219.79" cy="24.0619" r="23.0351" transform="rotate(-90 219.79 24.0619)" stroke="#8C82C8" stroke-width="2" stroke-miterlimit="0" stroke-linecap="round"/>
<path d="M218.79 212.021C218.79 212.573 219.238 213.021 219.79 213.021C220.342 213.021 220.79 212.573 220.79 212.021L218.79 212.021ZM220.497 50.3898C220.106 49.9993 219.473 49.9993 219.083 50.3898L212.719 56.7538C212.328 57.1443 212.328 57.7775 212.719 58.168C213.109 58.5585 213.742 58.5585 214.133 58.168L219.79 52.5111L225.447 58.168C225.837 58.5585 226.47 58.5585 226.861 58.168C227.251 57.7775 227.251 57.1443 226.861 56.7538L220.497 50.3898ZM220.79 212.021L220.79 51.0969L218.79 51.0969L218.79 212.021L220.79 212.021Z" fill="#8C82C8"/>
<circle cx="154.72" cy="24.0619" r="23.0351" transform="rotate(-90 154.72 24.0619)" stroke="#8C82C8" stroke-width="2" stroke-miterlimit="0" stroke-linecap="round"/>
<circle cx="154.72" cy="239.056" r="23.0351" transform="rotate(-90 154.72 239.056)" stroke="#8C82C8" stroke-width="2" stroke-miterlimit="0" stroke-linecap="round"/>
<path d="M155.72 51.0969C155.72 50.5446 155.272 50.0969 154.72 50.0969C154.168 50.0969 153.72 50.5446 153.72 51.0969L155.72 51.0969ZM154.013 212.728C154.403 213.118 155.036 213.118 155.427 212.728L161.791 206.364C162.181 205.973 162.181 205.34 161.791 204.95C161.4 204.559 160.767 204.559 160.377 204.95L154.72 210.607L149.063 204.95C148.672 204.559 148.039 204.559 147.649 204.95C147.258 205.34 147.258 205.973 147.649 206.364L154.013 212.728ZM153.72 51.0969L153.72 212.021L155.72 212.021L155.72 51.0969L153.72 51.0969Z" fill="#8C82C8"/>
<circle cx="89.6497" cy="24.0619" r="23.0351" transform="rotate(-90 89.6497 24.0619)" stroke="#8C82C8" stroke-width="2" stroke-miterlimit="0" stroke-linecap="round"/>
<circle cx="89.6497" cy="239.056" r="23.0351" transform="rotate(-90 89.6497 239.056)" stroke="#8C82C8" stroke-width="2" stroke-miterlimit="0" stroke-linecap="round"/>
<path d="M88.6498 212.021C88.6498 212.573 89.0976 213.021 89.6498 213.021C90.2021 213.021 90.6498 212.573 90.6498 212.021L88.6498 212.021ZM90.357 50.3898C89.9664 49.9993 89.3333 49.9993 88.9427 50.3898L82.5788 56.7538C82.1883 57.1443 82.1883 57.7775 82.5788 58.168C82.9693 58.5585 83.6025 58.5585 83.993 58.168L89.6498 52.5111L95.3067 58.168C95.6972 58.5585 96.3304 58.5585 96.7209 58.168C97.1114 57.7775 97.1114 57.1443 96.7209 56.7538L90.357 50.3898ZM90.6498 212.021L90.6498 51.0969L88.6498 51.0969L88.6498 212.021L90.6498 212.021Z" fill="#8C82C8"/>
<circle cx="24.5794" cy="239.056" r="23.0351" transform="rotate(-90 24.5794 239.056)" fill="#8C82C8"/>
<circle cx="24.5794" cy="24.0619" r="23.0351" transform="rotate(-90 24.5794 24.0619)" stroke="#8C82C8" stroke-width="2" stroke-miterlimit="0" stroke-linecap="round"/>
<path d="M25.5796 51.0969C25.5796 50.5446 25.1319 50.0969 24.5796 50.0969C24.0273 50.0969 23.5796 50.5446 23.5796 51.0969L25.5796 51.0969ZM23.8725 212.728C24.263 213.118 24.8961 213.118 25.2867 212.728L31.6506 206.364C32.0412 205.973 32.0412 205.34 31.6506 204.95C31.2601 204.559 30.6269 204.559 30.2364 204.95L24.5796 210.607L18.9227 204.95C18.5322 204.559 17.899 204.559 17.5085 204.95C17.118 205.34 17.118 205.973 17.5085 206.364L23.8725 212.728ZM23.5796 51.0969L23.5796 212.021L25.5796 212.021L25.5796 51.0969L23.5796 51.0969Z" fill="#8C82C8"/>
</svg>
