<svg width="244" height="264" viewBox="0 0 244 264" fill="none" xmlns="http://www.w3.org/2000/svg">
<circle cx="24.0351" cy="24.0351" r="23.0351" transform="rotate(90 24.0351 24.0351)" fill="#D74C2D"/>
<circle cx="24.0351" cy="239.029" r="23.0351" transform="rotate(90 24.0351 239.029)" stroke="#8C82C8" stroke-width="2" stroke-miterlimit="0" stroke-linecap="round"/>
<path d="M25.0349 51.0701C25.0349 50.5178 24.5872 50.0701 24.0349 50.0701C23.4826 50.0701 23.0349 50.5178 23.0349 51.0701L25.0349 51.0701ZM23.3278 212.701C23.7183 213.091 24.3515 213.091 24.742 212.701L31.106 206.337C31.4965 205.946 31.4965 205.313 31.106 204.923C30.7154 204.532 30.0823 204.532 29.6918 204.923L24.0349 210.58L18.3781 204.923C17.9875 204.532 17.3544 204.532 16.9638 204.923C16.5733 205.313 16.5733 205.946 16.9638 206.337L23.3278 212.701ZM23.0349 51.0701L23.0349 211.994L25.0349 211.994L25.0349 51.0701L23.0349 51.0701Z" fill="#8C82C8"/>
<circle cx="89.1051" cy="239.029" r="23.0351" transform="rotate(90 89.1051 239.029)" stroke="#8C82C8" stroke-width="2" stroke-miterlimit="0" stroke-linecap="round"/>
<circle cx="89.1051" cy="24.0351" r="23.0351" transform="rotate(90 89.1051 24.0351)" stroke="#8C82C8" stroke-width="2" stroke-miterlimit="0" stroke-linecap="round"/>
<path d="M88.105 211.994C88.105 212.546 88.5527 212.994 89.105 212.994C89.6573 212.994 90.105 212.546 90.105 211.994L88.105 211.994ZM89.8121 50.363C89.4216 49.9724 88.7885 49.9724 88.3979 50.363L82.034 56.7269C81.6434 57.1174 81.6434 57.7506 82.034 58.1411C82.4245 58.5317 83.0577 58.5317 83.4482 58.1411L89.105 52.4843L94.7619 58.1411C95.1524 58.5317 95.7856 58.5317 96.1761 58.1411C96.5666 57.7506 96.5666 57.1174 96.1761 56.7269L89.8121 50.363ZM90.105 211.994L90.105 51.0701L88.105 51.0701L88.105 211.994L90.105 211.994Z" fill="#8C82C8"/>
<circle cx="154.175" cy="239.029" r="23.0351" transform="rotate(90 154.175 239.029)" stroke="#8C82C8" stroke-width="2" stroke-miterlimit="0" stroke-linecap="round"/>
<circle cx="154.175" cy="24.0351" r="23.0351" transform="rotate(90 154.175 24.0351)" stroke="#8C82C8" stroke-width="2" stroke-miterlimit="0" stroke-linecap="round"/>
<path d="M155.175 51.0701C155.175 50.5178 154.727 50.0701 154.175 50.0701C153.623 50.0701 153.175 50.5178 153.175 51.0701L155.175 51.0701ZM153.468 212.701C153.858 213.091 154.492 213.091 154.882 212.701L161.246 206.337C161.637 205.946 161.637 205.313 161.246 204.923C160.856 204.532 160.222 204.532 159.832 204.923L154.175 210.58L148.518 204.923C148.128 204.532 147.494 204.532 147.104 204.923C146.713 205.313 146.713 205.946 147.104 206.337L153.468 212.701ZM153.175 51.0701L153.175 211.994L155.175 211.994L155.175 51.0701L153.175 51.0701Z" fill="#8C82C8"/>
<circle cx="219.245" cy="24.0351" r="23.0351" transform="rotate(90 219.245 24.0351)" fill="#8C82C8"/>
<circle cx="219.245" cy="239.029" r="23.0351" transform="rotate(90 219.245 239.029)" stroke="#8C82C8" stroke-width="2" stroke-miterlimit="0" stroke-linecap="round"/>
<path d="M218.245 211.994C218.245 212.546 218.693 212.994 219.245 212.994C219.798 212.994 220.245 212.546 220.245 211.994L218.245 211.994ZM219.953 50.363C219.562 49.9724 218.929 49.9724 218.538 50.363L212.174 56.7269C211.784 57.1174 211.784 57.7506 212.174 58.1411C212.565 58.5317 213.198 58.5317 213.589 58.1411L219.245 52.4843L224.902 58.1411C225.293 58.5317 225.926 58.5317 226.317 58.1411C226.707 57.7506 226.707 57.1174 226.317 56.7269L219.953 50.363ZM220.245 211.994L220.245 51.0701L218.245 51.0701L218.245 211.994L220.245 211.994Z" fill="#8C82C8"/>
</svg>
