<svg width="244" height="264" viewBox="0 0 244 264" fill="none" xmlns="http://www.w3.org/2000/svg">
<circle cx="24.035" cy="24.2038" r="23.0351" transform="rotate(90 24.035 24.2038)" fill="#8C82C8"/>
<circle cx="24.035" cy="239.198" r="23.0351" transform="rotate(90 24.035 239.198)" stroke="#8C82C8" stroke-width="2" stroke-miterlimit="0" stroke-linecap="round"/>
<path d="M23.0351 212.163C23.0351 212.715 23.4828 213.163 24.0351 213.163C24.5873 213.163 25.0351 212.715 25.0351 212.163L23.0351 212.163ZM24.7422 50.5317C24.3516 50.1411 23.7185 50.1411 23.328 50.5317L16.964 56.8956C16.5735 57.2861 16.5735 57.9193 16.964 58.3098C17.3545 58.7004 17.9877 58.7004 18.3782 58.3098L24.0351 52.653L29.6919 58.3098C30.0824 58.7004 30.7156 58.7004 31.1061 58.3098C31.4967 57.9193 31.4967 57.2861 31.1061 56.8956L24.7422 50.5317ZM25.0351 212.163L25.0351 51.2388L23.0351 51.2388L23.0351 212.163L25.0351 212.163Z" fill="#8C82C8"/>
<circle cx="89.105" cy="239.198" r="23.0351" transform="rotate(90 89.105 239.198)" stroke="#8C82C8" stroke-width="2" stroke-miterlimit="0" stroke-linecap="round"/>
<circle cx="89.105" cy="24.2038" r="23.0351" transform="rotate(90 89.105 24.2038)" stroke="#8C82C8" stroke-width="2" stroke-miterlimit="0" stroke-linecap="round"/>
<path d="M90.1049 51.2388C90.1049 50.6865 89.6572 50.2388 89.1049 50.2388C88.5526 50.2388 88.1049 50.6865 88.1049 51.2388L90.1049 51.2388ZM88.3978 212.87C88.7883 213.26 89.4215 213.26 89.812 212.87L96.176 206.506C96.5665 206.115 96.5665 205.482 96.176 205.091C95.7855 204.701 95.1523 204.701 94.7618 205.091L89.1049 210.748L83.4481 205.091C83.0575 204.701 82.4244 204.701 82.0338 205.091C81.6433 205.482 81.6433 206.115 82.0338 206.506L88.3978 212.87ZM88.1049 51.2388L88.1049 212.163L90.1049 212.163L90.1049 51.2388L88.1049 51.2388Z" fill="#8C82C8"/>
<circle cx="154.175" cy="239.198" r="23.0351" transform="rotate(90 154.175 239.198)" stroke="#8C82C8" stroke-width="2" stroke-miterlimit="0" stroke-linecap="round"/>
<circle cx="154.175" cy="24.2038" r="23.0351" transform="rotate(90 154.175 24.2038)" stroke="#8C82C8" stroke-width="2" stroke-miterlimit="0" stroke-linecap="round"/>
<path d="M153.175 212.163C153.175 212.715 153.623 213.163 154.175 213.163C154.727 213.163 155.175 212.715 155.175 212.163L153.175 212.163ZM154.882 50.5317C154.492 50.1411 153.859 50.1411 153.468 50.5317L147.104 56.8956C146.714 57.2861 146.714 57.9193 147.104 58.3098C147.495 58.7004 148.128 58.7004 148.518 58.3098L154.175 52.653L159.832 58.3098C160.223 58.7004 160.856 58.7004 161.246 58.3098C161.637 57.9193 161.637 57.2861 161.246 56.8956L154.882 50.5317ZM155.175 212.163L155.175 51.2388L153.175 51.2388L153.175 212.163L155.175 212.163Z" fill="#8C82C8"/>
<circle cx="219.245" cy="24.2038" r="23.0351" transform="rotate(90 219.245 24.2038)" fill="#D74C2D"/>
<circle cx="219.245" cy="239.198" r="23.0351" transform="rotate(90 219.245 239.198)" stroke="#8C82C8" stroke-width="2" stroke-miterlimit="0" stroke-linecap="round"/>
<path d="M220.245 51.2388C220.245 50.6865 219.798 50.2388 219.245 50.2388C218.693 50.2388 218.245 50.6865 218.245 51.2388L220.245 51.2388ZM218.538 212.87C218.929 213.26 219.562 213.26 219.952 212.87L226.316 206.506C226.707 206.115 226.707 205.482 226.316 205.091C225.926 204.701 225.293 204.701 224.902 205.091L219.245 210.748L213.588 205.091C213.198 204.701 212.565 204.701 212.174 205.091C211.784 205.482 211.784 206.115 212.174 206.506L218.538 212.87ZM218.245 51.2388L218.245 212.163L220.245 212.163L220.245 51.2388L218.245 51.2388Z" fill="#8C82C8"/>
</svg>
